PathFileType	4	(X/Y/Z)	C:/Users/opensim2020/Desktop/walking_exp_matlab/subject03_walking07_straight_01.trc	
DataRate	CameraRate	NumFrames	NumMarkers	Units	OrigDataRate	OrigDataStartFrame	OrigNumFrames	
100.00	100.00	8	46	mm	100.00	742	310	
Frame#	Time	LFHD			RFHD			LBHD			RBHD			C7			T10			CLAV			STRN			RBAK			LSHO			LUPA			LELB			LFRM			LWRA			LWRB			LFIN			RSHO			RUPA			RELB			RFRM			RWRA			RWRB			RFIN			LASI			RASI			LPSI			RPSI			LTHI			LKNE			LTIB			LANK			LHEE			LTOE			RTHI			RKNE			RTIB			RANK			RHEE			RTOE			*39			*40			*41			*42			*43			*44			*45			
		X1	Y1	Z1	X2	Y2	Z2	X3	Y3	Z3	X4	Y4	Z4	X5	Y5	Z5	X6	Y6	Z6	X7	Y7	Z7	X8	Y8	Z8	X9	Y9	Z9	X10	Y10	Z10	X11	Y11	Z11	X12	Y12	Z12	X13	Y13	Z13	X14	Y14	Z14	X15	Y15	Z15	X16	Y16	Z16	X17	Y17	Z17	X18	Y18	Z18	X19	Y19	Z19	X20	Y20	Z20	X21	Y21	Z21	X22	Y22	Z22	X23	Y23	Z23	X24	Y24	Z24	X25	Y25	Z25	X26	Y26	Z26	X27	Y27	Z27	X28	Y28	Z28	X29	Y29	Z29	X30	Y30	Z30	X31	Y31	Z31	X32	Y32	Z32	X33	Y33	Z33	X34	Y34	Z34	X35	Y35	Z35	X36	Y36	Z36	X37	Y37	Z37	X38	Y38	Z38	X39	Y39	Z39	X40	Y40	Z40	X41	Y41	Z41	X42	Y42	Z42	X43	Y43	Z43	X44	Y44	Z44	X45	Y45	Z45	X46	Y46	Z46	

78	0.770	1381.90869	-784.73682	1628.98804	1515.06140	-794.01776	1624.33191	1375.20239	-906.01398	1566.39392	1505.99414	-909.48309	1562.59961	1423.34070	-925.23450	1414.94397	1415.48633	-971.83893	1106.68372	1429.63733	-804.78119	1335.74939	1419.13477	-766.44507	1168.88257	1508.13770	-987.54669	1238.87451	1273.16101	-837.62616	1378.61975	1195.43311	-824.51672	1187.81543	1180.43457	-794.00574	1069.38892	1189.23059	-724.57782	960.64996	1228.96704	-663.96985	862.97192	1177.74390	-683.26746	854.79675	1192.79956	-631.55542	790.97809	1587.18958	-862.19690	1355.60999	1651.42017	-889.24786	1133.06543	1662.33508	-887.37103	1019.41467	1660.71033	-884.56244	882.01410	1625.00513	-859.68317	785.31427	1665.52930	-896.48633	781.89197	1652.70337	-881.03119	708.66461	1299.10657	-818.62811	929.33936	1537.09314	-811.97388	938.28156	1354.03564	-978.05438	959.01654	1502.30750	-973.77692	971.80627	1260.82751	-914.32104	634.23907	1291.18713	-949.25562	459.22055	1279.89270	-1072.69885	299.86508	1310.70374	-1185.87646	122.15260	1342.95105	-1239.29724	105.26863	1335.65967	-1063.56506	34.90990	1588.20276	-830.08862	650.48029	1556.06555	-771.94629	477.85043	1569.16125	-771.87164	290.95621	1534.17297	-740.63586	74.52907	1484.31360	-781.84070	39.45264	1511.15393	-597.67651	41.87687	1431.68665	-878.98975	1674.32556																		 
79	0.780	1383.08557	-776.18243	1630.49121	1516.43335	-785.04468	1626.08057	1376.60205	-896.88214	1567.98730	1507.54236	-900.64777	1564.37878	1425.18237	-916.12195	1416.35156	1417.00549	-962.27832	1107.97424	1431.30579	-795.64832	1337.55933	1420.83850	-756.82159	1170.81628	1510.16406	-978.13599	1240.35425	1274.80652	-828.98035	1380.48730	1197.45215	-817.07751	1189.31042	1182.99927	-787.27643	1070.42163	1190.76489	-719.98322	960.46796	1229.83118	-660.87573	861.58142	1178.65906	-680.80371	853.84863	1193.27576	-630.18915	788.98218	1588.77271	-852.80927	1357.46765	1653.00635	-879.06598	1134.76038	1663.93872	-876.44293	1021.12000	1662.43860	-873.97314	883.79663	1626.75610	-849.42151	786.94580	1667.50073	-885.98187	783.66370	1654.76270	-870.63477	710.46033	1300.94177	-808.20978	930.77136	1538.79199	-802.07312	940.41925	1355.04602	-967.56573	960.29016	1503.27283	-963.85065	973.87946	1261.90601	-902.50238	634.88446	1291.18457	-935.95569	459.57098	1279.93945	-1063.42603	302.73938	1311.14111	-1180.12195	127.85796	1343.82507	-1234.18201	113.20358	1336.32507	-1062.68042	35.11673	1590.06091	-822.38361	651.91577	1557.37158	-766.14624	478.70932	1570.10254	-768.67877	291.42993	1534.43042	-740.30310	74.58797	1484.67432	-781.82013	39.57315	1511.12024	-597.31213	41.33027	1432.88611	-870.06171	1675.83899																		 
80	0.790	1384.79993	-767.42877	1631.82202	1517.56995	-776.28082	1627.75769	1378.05090	-888.29248	1569.63037	1508.97717	-891.88397	1566.21716	1426.97986	-907.93707	1417.94373	1418.60693	-952.76520	1109.26062	1432.86633	-786.63464	1339.34216	1422.43457	-747.26794	1172.70959	1512.17249	-968.71521	1241.83191	1276.48657	-820.39032	1382.38843	1199.46387	-809.50275	1190.81958	1184.99487	-781.36597	1071.57910	1192.30627	-715.54956	960.35382	1230.51978	-657.43768	860.40637	1179.48083	-678.55231	852.93408	1193.64429	-629.23907	786.89893	1590.38721	-843.46527	1359.36926	1654.72559	-868.68896	1136.49170	1665.53442	-865.58588	1022.94867	1664.28723	-863.08405	885.65417	1628.60571	-838.85663	788.71533	1669.62939	-875.09607	785.49512	1656.61926	-860.38239	712.00537	1303.38965	-797.35846	932.26410	1540.62891	-792.18958	942.50696	1356.12061	-957.07196	961.73444	1504.30273	-953.97675	975.87097	1262.87476	-890.12103	635.47937	1290.92517	-921.82202	459.38074	1280.54089	-1052.97461	305.54782	1311.95532	-1173.86816	134.00746	1345.09375	-1228.01685	121.68699	1337.01514	-1062.05872	35.17601	1591.98779	-814.71930	653.22852	1558.63416	-761.04968	479.44193	1571.22168	-765.60828	291.75449	1534.69055	-740.14087	74.58784	1485.01868	-781.83936	39.66849	1511.56873	-597.09247	40.87127	1434.15088	-861.18091	1677.59900																		 
81	0.800	1385.46436	-758.79834	1633.28223	1518.73413	-767.37689	1629.24805	1379.47327	-879.86322	1571.23633	1510.31445	-882.86047	1567.87610	1428.59558	-899.03400	1418.94580	1420.19629	-943.15985	1110.43762	1434.28040	-777.70416	1340.91992	1423.97363	-737.87335	1174.47864	1514.15002	-959.21967	1243.28088	1278.10840	-811.78320	1384.18396	1201.45154	-802.17310	1192.25854	1187.12341	-775.50391	1072.62537	1193.67786	-711.44781	960.11871	1231.10852	-655.61823	858.55054	1180.13049	-676.52838	852.08881	1193.94287	-628.60767	784.71741	1591.89990	-834.09717	1361.23096	1656.58411	-858.09991	1138.28076	1667.22644	-854.54089	1024.78027	1666.24377	-851.93091	887.50488	1630.60242	-827.91266	790.43854	1671.89746	-863.86847	787.34637	1658.69324	-849.53607	713.71271	1305.37061	-787.08899	933.64227	1542.44849	-782.51581	944.38733	1357.32251	-946.65051	963.26202	1505.48560	-943.92694	977.64850	1263.75598	-877.56500	635.84821	1290.36414	-906.57117	459.04535	1280.87366	-1041.51990	308.23743	1313.12561	-1166.75464	140.36446	1346.94971	-1220.61743	130.54189	1337.69678	-1060.76782	35.32185	1593.97986	-806.93762	654.38043	1560.21716	-755.84967	479.92252	1572.45300	-762.74493	291.98575	1534.99707	-739.84497	74.57822	1485.33105	-781.82227	39.72345	1511.79004	-596.86462	40.41697	1435.18115	-852.32855	1679.08215																		 
82	0.810	1386.55872	-750.13477	1634.50940	1519.84058	-758.51447	1630.56848	1380.79956	-871.33813	1572.76355	1511.66919	-874.14130	1569.52856	1430.35425	-890.03949	1419.99414	1421.89246	-933.49744	1111.45496	1435.80591	-768.64075	1342.48071	1425.45361	-728.38550	1176.10803	1516.21228	-949.67456	1244.61902	1279.76318	-803.19214	1385.79651	1203.48425	-794.43695	1193.64453	1189.13660	-769.39978	1073.71497	1194.96887	-707.33643	959.94714	1231.52734	-653.16547	856.88647	1180.69470	-674.62061	851.19843	1194.12146	-628.29401	782.44983	1593.38464	-824.68829	1362.93677	1658.37451	-847.74292	1139.97327	1668.98560	-843.53052	1026.56067	1668.22607	-840.58325	889.30615	1632.65796	-816.65228	792.16724	1674.20264	-852.26544	789.07147	1660.98413	-838.22467	715.35352	1307.53271	-777.02643	935.03143	1544.39294	-772.92133	946.05927	1358.71655	-936.38647	964.73627	1506.86316	-933.92987	979.24084	1264.43982	-864.22040	636.01184	1289.62048	-890.55823	458.49030	1281.38574	-1029.63147	311.28888	1314.70313	-1158.45862	146.73825	1349.41675	-1211.84753	139.62561	1338.29980	-1059.42871	35.43352	1595.92078	-799.42706	655.28241	1561.79858	-751.02478	480.20575	1573.57080	-759.99701	292.12842	1535.18335	-739.42261	74.55669	1485.60913	-781.75165	39.77089	1511.72180	-596.48975	39.99417	1436.17603	-843.18481	1680.34546																		 
83	0.820	1387.63428	-741.43414	1635.45459	1520.93530	-749.64185	1631.66968	1382.13208	-862.92249	1574.16516	1512.94214	-865.50818	1571.01208	1431.89258	-881.64154	1420.82483	1423.63477	-924.02417	1112.30078	1437.13086	-759.78577	1343.75012	1426.91553	-718.95441	1177.50940	1518.36316	-940.19635	1245.82751	1281.36536	-794.73633	1387.18811	1205.37085	-786.87567	1194.84924	1191.32190	-763.04932	1074.56372	1196.11011	-703.30743	959.54095	1231.96179	-650.16229	855.58911	1181.21655	-672.80035	850.20697	1194.25452	-628.20880	779.97839	1594.79712	-815.30011	1364.47644	1660.35864	-837.07068	1141.50195	1670.91577	-832.39990	1028.18347	1670.38452	-829.02667	890.99823	1634.77344	-805.03528	793.76428	1676.67078	-840.40289	790.71466	1663.33423	-826.42188	716.81384	1309.79724	-766.71503	936.25830	1546.33008	-763.35553	947.33649	1360.21094	-926.43878	966.10065	1508.35620	-924.79779	980.93713	1264.97473	-850.90332	635.94824	1288.86182	-873.90460	457.76346	1282.39087	-1016.13855	313.64163	1316.53223	-1148.98828	153.10564	1352.21094	-1201.71851	148.78918	1339.08154	-1057.53284	35.81551	1597.39221	-792.37097	655.85107	1563.33569	-746.36145	480.25082	1574.44531	-757.29523	292.14505	1535.13257	-739.00653	74.35640	1485.66150	-781.63416	39.83092	1511.77332	-596.13495	39.53982	1437.41516	-834.25946	1681.84497																		 
84	0.830	1389.13196	-732.79932	1636.02808	1521.89929	-740.82477	1632.45898	1383.32617	-854.47284	1575.28296	1514.18823	-856.90570	1572.24304	1433.55945	-872.95319	1421.52344	1425.51001	-914.72455	1112.91785	1438.43933	-750.90930	1344.70374	1428.33630	-709.57306	1178.66150	1520.49805	-930.74487	1246.76794	1282.90942	-786.37476	1388.26453	1207.19824	-779.31158	1195.71802	1193.22852	-757.04779	1075.05981	1197.13672	-699.38031	959.00934	1232.20618	-648.39111	853.41827	1181.55884	-671.04321	849.06866	1194.23987	-628.26624	777.33490	1596.12524	-805.90936	1365.86133	1662.25598	-826.52130	1142.83459	1672.84741	-821.38214	1029.57837	1672.53516	-817.26392	892.42273	1637.02783	-793.14087	795.18146	1679.09119	-828.20776	792.09631	1665.84363	-814.32947	718.12415	1311.90381	-756.94580	937.26245	1548.09998	-754.05560	948.13800	1361.82471	-916.76740	967.16797	1510.05310	-915.24908	982.25488	1265.48584	-837.17267	635.60199	1288.28528	-856.89087	456.79459	1283.27979	-1001.90680	316.00806	1318.18848	-1138.16797	159.10968	1355.03125	-1190.26733	157.92715	1340.20496	-1054.78748	36.39295	1598.45251	-785.60809	656.09296	1564.61206	-741.65045	480.04025	1575.08533	-754.59692	292.03296	1534.82373	-738.80646	74.40527	1485.61255	-781.56567	39.88823	1511.73853	-595.70721	39.10299	1438.27686	-824.96161	1682.94470																		 
85	0.840	1389.47070	-724.33295	1636.52502	1522.88672	-731.95001	1633.01196	1384.48376	-846.12531	1576.11292	1515.38391	-848.26801	1573.13147	1435.26257	-864.04120	1421.92529	1427.40320	-905.50696	1113.24646	1439.66797	-741.94061	1345.40686	1429.64148	-700.20691	1179.47192	1522.66064	-921.26794	1247.37280	1284.34534	-777.99963	1388.92041	1208.88953	-771.83893	1196.42688	1194.83972	-751.47656	1075.31750	1197.77490	-695.69183	958.22437	1232.29944	-646.01105	851.37317	1181.85339	-669.29041	847.74280	1194.21704	-628.50598	774.51825	1597.42322	-796.42255	1366.77393	1664.31860	-815.65503	1143.84729	1675.06970	-809.97699	1030.71716	1674.88354	-805.30798	893.60437	1639.37463	-780.95703	796.35541	1681.63354	-815.75861	793.23364	1668.30518	-801.81757	719.15637	1313.85864	-747.85895	938.05237	1549.76270	-744.78296	948.50085	1363.57410	-907.54883	968.03857	1511.85254	-905.50177	982.99579	1265.91870	-823.58429	635.16113	1288.13940	-839.41162	455.90875	1284.35828	-986.98376	318.30157	1319.79272	-1126.41931	164.88103	1357.61438	-1177.86157	166.83730	1340.50903	-1052.83960	37.05627	1599.15137	-779.19775	656.35291	1565.83447	-736.90247	479.74210	1575.76392	-751.74146	291.87833	1534.62390	-738.40833	74.29137	1485.44360	-781.31030	39.77005	1511.65662	-595.35968	38.79391	1439.24487	-816.08374	1683.53296																		 
